# xmcd CD database file
#
# Track frame offsets:
#	150
#	10593
#	28172
#	45074
#	62839
#	80316
#	97605
#	110708
#	128530
#	140870
#	157346
#
# Disc length: 2319 seconds
#
# Revision: 1
# Processed by: cddbd v1.5.2PL0 Copyright (c) Steve Scherf et al.
# Submitted via: CDex 1.70beta2
#
DISCID=84090d0b
DTITLE=קובי אפללו - ביום הכי בהיר
DYEAR=2009
DGENRE=Country
TTITLE0=רוקד לפעימות ליבך
TTITLE1=אהבה משוגעת
TTITLE2=ביום הכי בהיר
TTITLE3=שכל העולם יידע
TTITLE4=יש בי אור
TTITLE5=מרחוק
TTITLE6=סיכוי להתקרב
TTITLE7=עדיין כאן
TTITLE8=עצמי עינייך
TTITLE9=והיית לי לאישה
TTITLE10=עוד רגע
EXTD=YEAR: 2009
EXTT0=
EXTT1=
EXTT2=
EXTT3=
EXTT4=
EXTT5=
EXTT6=
EXTT7=
EXTT8=
EXTT9=
EXTT10=
PLAYORDER=
